<svg width="37" height="28" viewBox="0 0 37 28" fill="none" xmlns="http://www.w3.org/2000/svg">
<path d="M29.4649 7.34375C29.2474 10.3622 27.0082 12.6875 24.5664 12.6875C22.1246 12.6875 19.8817 10.363 19.668 7.34375C19.4453 4.20355 21.6251 2 24.5664 2C27.5077 2 29.6875 4.2607 29.4649 7.34375Z" stroke="#ffffff" stroke-width="3.5" stroke-linecap="round" stroke-linejoin="round"/>
<path d="M24.5622 17.4375C19.7254 17.4375 15.0741 19.84 13.9088 24.5187C13.7545 25.1377 14.1426 25.75 14.7787 25.75H34.3465C34.9825 25.75 35.3685 25.1377 35.2163 24.5187C34.0511 19.765 29.3998 17.4375 24.5622 17.4375Z" stroke="#ffffff" stroke-width="3.5" stroke-miterlimit="10"/>
<path d="M14.4693 8.67523C14.2957 11.0859 12.4862 12.9844 10.5357 12.9844C8.58527 12.9844 6.77285 11.0866 6.60215 8.67523C6.42477 6.16738 8.18598 4.375 10.5357 4.375C12.8855 4.375 14.6467 6.2134 14.4693 8.67523Z" stroke="#ffffff" stroke-width="3.5" stroke-linecap="round" stroke-linejoin="round"/>
<path d="M14.9148 17.5852C13.5751 16.9714 12.0997 16.7354 10.5359 16.7354C6.67651 16.7354 2.95815 18.6539 2.0267 22.3908C1.90424 22.8851 2.21448 23.3742 2.72213 23.3742H11.0554" stroke="#ffffff" stroke-width="3.5" stroke-miterlimit="10" stroke-linecap="round"/>
</svg>
