<svg version="1.0" xmlns="http://www.w3.org/2000/svg" viewBox="0 0 750.000000 615.000000"><g transform="translate(0.000000,615.000000) scale(0.100000,-0.100000)" stroke="none"><path d="M2243 6138 c1 -9 -19 -16 -58 -21 -87 -12 -258 -56 -322 -84 -17 -7 -35 -13 -41 -13 -11 0 -149 -57 -172 -71 -8 -5 -24 -13 -35 -18 -11 -5 -36 -20 -55 -33 -19 -13 -42 -27 -50 -30 -52 -20 -254 -224 -293 -296 -24 -44 -91 -178 -103 -207 -44 -107 -89 -268 -104 -370 -4 -27 -12 -75 -18 -105 -18 -93 -34 -229 -42 -345 -20 -305 -73 -713 -106 -815 -8 -25 -14 -56 -14 -71 0 -14 -4 -29 -9 -35 -6 -5 -14 -27 -20 -49 -12 -52 -30 -103 -47 -138 -8 -16 -14 -33 -14 -38 0 -25 -294 -616 -450 -904 -75 -140 -150 -290 -150 -302 0 -6 -6 -24 -14 -40 -13 -26 -21 -46 -56 -143 -6 -19 -16 -56 -20 -82 -5 -27 -12 -53 -15 -59 -29 -45 -42 -523 -18 -644 27 -138 91 -304 153 -400 11 -16 23 -37 27 -45 18 -40 159 -214 229 -282 76 -74 152 -137 184 -151 8 -4 29 -16 45 -27 17 -11 37 -23 45 -26 8 -3 29 -12 45 -19 203 -89 460 -99 730 -28 137 36 172 46 203 59 18 8 41 14 51 14 10 0 24 6 30 14 6 8 24 16 39 19 39 7 101 32 114 45 7 7 19 12 29 12 17 0 76 28 383 181 98 49 184 89 191 89 7 0 18 7 25 15 7 8 19 15 26 15 8 0 43 14 77 30 35 17 70 30 78 30 8 0 23 7 33 15 11 8 29 15 41 15 12 0 26 5 33 12 6 6 30 14 54 18 24 5 57 13 73 18 99 35 295 51 385 31 25 -5 61 -12 80 -15 33 -5 51 -11 153 -50 49 -20 113 -50 142 -67 91 -55 232 -152 322 -223 200 -156 302 -234 307 -234 3 0 24 -12 48 -27 87 -56 118 -72 238 -121 75 -30 125 -47 230 -76 175 -48 469 -76 615 -57 50 6 110 11 134 11 74 0 354 64 451 103 14 5 39 13 55 18 52 13 105 35 117 47 7 7 20 12 29 12 17 0 187 84 244 121 17 10 37 22 45 26 8 3 31 19 51 35 20 15 40 28 44 28 15 0 185 139 274 225 114 110 269 301 304 375 4 8 16 29 26 45 24 38 82 156 106 215 10 25 24 59 31 77 8 17 14 36 14 43 0 7 7 33 15 59 23 74 43 162 52 226 5 39 12 59 21 57 9 -1 12 43 12 193 0 162 -2 195 -14 195 -10 0 -17 17 -21 57 -4 32 -13 78 -21 102 -8 25 -14 56 -14 70 -1 14 -7 37 -15 51 -8 14 -14 33 -15 42 0 10 -13 47 -30 81 -16 35 -30 71 -30 79 0 9 -7 21 -15 28 -8 7 -15 20 -15 30 0 10 -7 23 -15 30 -8 7 -15 21 -15 31 0 10 -5 21 -11 24 -5 4 -15 17 -20 28 -5 12 -18 36 -29 52 -11 17 -23 37 -27 45 -3 8 -19 31 -35 51 -15 20 -28 40 -28 44 0 10 -85 120 -183 235 -99 116 -316 334 -417 420 -35 30 -87 76 -115 101 -27 25 -77 67 -110 93 -33 25 -95 74 -138 109 -43 34 -90 71 -105 82 -24 18 -134 104 -305 239 -81 64 -284 234 -382 319 -219 192 -725 598 -920 740 -44 31 -117 84 -163 117 -45 33 -85 60 -88 60 -3 0 -23 14 -44 30 -21 17 -41 30 -45 30 -4 0 -24 14 -45 30 -21 17 -41 30 -44 30 -4 0 -25 12 -49 27 -56 37 -78 50 -102 63 -11 5 -42 23 -70 40 -89 52 -455 230 -474 230 -5 0 -22 6 -38 14 -30 15 -80 33 -128 46 -16 5 -43 13 -60 18 -32 11 -111 33 -185 52 -25 6 -81 15 -125 21 -49 6 -84 15 -91 24 -9 13 -49 15 -238 15 -175 0 -225 -3 -223 -12z"/> </g> </svg>