<svg width="35" height="35" viewBox="0 0 35 35" fill="none" xmlns="http://www.w3.org/2000/svg">
<path d="M17.5 35C7.83475 35 0 27.1652 0 17.5C0 7.83475 7.83475 0 17.5 0C27.1652 0 35 7.83475 35 17.5C35 27.1652 27.1652 35 17.5 35ZM17.5 31.5C21.213 31.5 24.774 30.025 27.3995 27.3995C30.025 24.774 31.5 21.213 31.5 17.5C31.5 13.787 30.025 10.226 27.3995 7.60051C24.774 4.975 21.213 3.5 17.5 3.5C13.787 3.5 10.226 4.975 7.60051 7.60051C4.975 10.226 3.5 13.787 3.5 17.5C3.5 21.213 4.975 24.774 7.60051 27.3995C10.226 30.025 13.787 31.5 17.5 31.5ZM10.5 19.25H24.5C24.5 21.1065 23.7625 22.887 22.4497 24.1997C21.137 25.5125 19.3565 26.25 17.5 26.25C15.6435 26.25 13.863 25.5125 12.5503 24.1997C11.2375 22.887 10.5 21.1065 10.5 19.25ZM10.5 15.75C9.80381 15.75 9.13613 15.4734 8.64384 14.9812C8.15156 14.4889 7.875 13.8212 7.875 13.125C7.875 12.4288 8.15156 11.7611 8.64384 11.2688C9.13613 10.7766 9.80381 10.5 10.5 10.5C11.1962 10.5 11.8639 10.7766 12.3562 11.2688C12.8484 11.7611 13.125 12.4288 13.125 13.125C13.125 13.8212 12.8484 14.4889 12.3562 14.9812C11.8639 15.4734 11.1962 15.75 10.5 15.75ZM24.5 15.75C23.8038 15.75 23.1361 15.4734 22.6438 14.9812C22.1516 14.4889 21.875 13.8212 21.875 13.125C21.875 12.4288 22.1516 11.7611 22.6438 11.2688C23.1361 10.7766 23.8038 10.5 24.5 10.5C25.1962 10.5 25.8639 10.7766 26.3562 11.2688C26.8484 11.7611 27.125 12.4288 27.125 13.125C27.125 13.8212 26.8484 14.4889 26.3562 14.9812C25.8639 15.4734 25.1962 15.75 24.5 15.75Z" fill="#ffffff"/>
</svg>
