<svg width="25" height="24" viewBox="0 0 25 24" fill="none" xmlns="http://www.w3.org/2000/svg">
<path d="M21.0195 10C21.0195 17 12.0195 23 12.0195 23C12.0195 23 3.01953 17 3.01953 10C3.01953 7.61305 3.96774 5.32387 5.65557 3.63604C7.3434 1.94821 9.63258 1 12.0195 1C14.4065 1 16.6957 1.94821 18.3835 3.63604C20.0713 5.32387 21.0195 7.61305 21.0195 10Z" stroke="#FF5C00" stroke-width="2" stroke-linecap="round" stroke-linejoin="round"/>
<path d="M12.0195 13C13.6764 13 15.0195 11.6569 15.0195 10C15.0195 8.34315 13.6764 7 12.0195 7C10.3627 7 9.01953 8.34315 9.01953 10C9.01953 11.6569 10.3627 13 12.0195 13Z" stroke="#FF5C00" stroke-width="2" stroke-linecap="round" stroke-linejoin="round"/>
</svg>
