<svg width="54" height="54" viewBox="0 0 54 54" fill="none" xmlns="http://www.w3.org/2000/svg">
<path d="M27.5 10C37.1652 10 45 17.8348 45 27.5C45 37.1652 37.1652 45 27.5 45C17.8348 45 10 37.1652 10 27.5C10 17.8348 17.8348 10 27.5 10ZM27.5 13.5C23.787 13.5 20.226 14.975 17.6005 17.6005C14.975 20.226 13.5 23.787 13.5 27.5C13.5 31.213 14.975 34.774 17.6005 37.3995C20.226 40.025 23.787 41.5 27.5 41.5C31.213 41.5 34.774 40.025 37.3995 37.3995C40.025 34.774 41.5 31.213 41.5 27.5C41.5 23.787 40.025 20.226 37.3995 17.6005C34.774 14.975 31.213 13.5 27.5 13.5ZM27.5 17C27.9286 17.0001 28.3423 17.1574 28.6627 17.4423C28.983 17.7271 29.1876 18.1196 29.2378 18.5452L29.25 18.75V26.7755L33.9872 31.5128C34.3011 31.8277 34.4833 32.2503 34.4969 32.6947C34.5105 33.1391 34.3544 33.572 34.0603 33.9055C33.7663 34.239 33.3563 34.448 32.9137 34.4902C32.4711 34.5324 32.029 34.4045 31.6772 34.1325L31.5128 33.9872L26.2628 28.7372C25.9908 28.465 25.8161 28.1108 25.7657 27.7292L25.75 27.5V18.75C25.75 18.2859 25.9344 17.8408 26.2626 17.5126C26.5908 17.1844 27.0359 17 27.5 17Z" fill="#ffffff"/>
</svg>
